<?xml version="1.0" standalone="no"?><!DOCTYPE svg PUBLIC "-//W3C//DTD SVG 1.1//EN" "http://www.w3.org/Graphics/SVG/1.1/DTD/svg11.dtd"><svg t="1583068424209" class="icon" viewBox="0 0 1024 1024" version="1.1" xmlns="http://www.w3.org/2000/svg" p-id="1244" xmlns:xlink="http://www.w3.org/1999/xlink" width="200" height="200"><defs><style type="text/css"></style></defs><path d="M512 882.78857422c-203.93371583 0-370.78857422-166.8548584-370.78857422-370.78857422s166.8548584-370.78857422 370.78857422-370.78857422 370.78857422 166.8548584 370.78857422 370.78857422S715.93371583 882.78857422 512 882.78857422zM512 182.92514038C331.24057007 182.92514038 182.92514038 331.24057007 182.92514038 512s148.31542969 329.07485962 329.07485962 329.07485962 329.07485962-148.31542969 329.07485962-329.07485962S692.75942993 182.92514038 512 182.92514038z" p-id="1245"></path><path d="M206.09942627 516.63485718l0-9.26971436c0-50.98342896 41.7137146-92.69714356 92.69714355-92.69714355l250.2822876 0c50.98342896 0 92.69714356 41.7137146 92.69714356 92.69714355l0 9.26971436c0 0 0 4.63485718 0 4.63485717L567.61828614 521.26971435c0 0 0-4.63485718 0-4.63485717l0-9.26971436c0-13.90457153-9.26971435-23.17428589-23.1742859-23.17428589L539.80914307 484.19085693 479.55599976 484.19085693 391.49371338 484.19085693l-92.69714356 0c-13.90457153 0-23.17428589 9.26971435-23.17428589 23.17428589l0 9.26971436c0 13.90457153 9.26971435 23.17428589 23.17428589 23.17428589l74.15771485 0C372.95428467 567.61828614 386.8588562 590.79257202 410.03314209 609.33200073L298.79656982 609.33200073C247.81314087 609.33200073 206.09942627 567.61828614 206.09942627 516.63485718z" p-id="1246"></path><path d="M386.8588562 516.63485718L386.8588562 507.36514282c0 0 0-4.63485718 0-4.63485717l69.52285766 0c0 0 0 4.63485718 0 4.63485717l0 9.26971436c0 13.90457153 9.26971435 23.17428589 23.1742859 23.17428589l27.80914306 0 41.7137146 0 88.06228638 0 92.69714355 0c13.90457153 0 23.17428589-9.26971435 23.17428589-23.17428589l0-9.26971436c0-13.90457153-9.26971435-23.17428589-23.17428589-23.17428589L651.04571533 484.19085693c0-27.80914307-13.90457153-50.98342896-32.44400025-69.52285766l111.23657227 0c50.98342896 0 92.69714356 41.7137146 92.69714356 92.69714355l0 9.26971436c0 50.98342896-41.7137146 92.69714356-92.69714356 92.69714355l-250.28228759 0C428.5725708 609.33200073 386.8588562 567.61828614 386.8588562 516.63485718z" p-id="1247"></path></svg>