<?xml version="1.0" standalone="no"?><!DOCTYPE svg PUBLIC "-//W3C//DTD SVG 1.1//EN" "http://www.w3.org/Graphics/SVG/1.1/DTD/svg11.dtd"><svg t="1583068552771" class="icon" viewBox="0 0 1024 1024" version="1.1" xmlns="http://www.w3.org/2000/svg" p-id="1254" xmlns:xlink="http://www.w3.org/1999/xlink" width="200" height="200"><defs><style type="text/css"></style></defs><path d="M730.45333333 694.04444445h218.45333334v72.81777777H730.45333333zM657.63555555 839.68h291.27111112v72.81777778H657.63555555zM803.27111111 548.40888889h145.63555556v72.81777778H803.27111111z" p-id="1255"></path><path d="M507.2896 819.97368889l-62.50951111-32.39253334V893.15555555h134.43982222v-105.5744l-62.50951111 32.39253334a10.24 10.24 0 0 1-9.4208 0zM513.13777778 518.62186667l4.99484444-8.61297778h-10.00106667l5.00622223 8.61297778z" p-id="1256"></path><path d="M902.01884445 263.32728889a144.49777778 144.49777778 0 0 0-28.30791112-19.20568889L581.08586667 92.4672a150.35733333 150.35733333 0 0 0-138.16035556 0L150.27768889 244.1216C103.90186667 268.15146667 75.09333333 314.25422222 75.09333333 364.45297778v296.23182222c0 50.18737778 28.80853333 96.29013333 75.18435556 120.33137778l292.63644444 151.64302222a150.28906667 150.28906667 0 0 0 136.78364445 0.69404445V787.89973333l-0.47786667 0.25031112v105.5744H444.78008889v-105.5744L214.65315555 668.89955555a9.28426667 9.28426667 0 0 1-5.13137777-8.20337777V429.07875555l-99.64657778-52.15573333 0.25031111-0.43235555 99.39626667 52.0192v0.56888888l235.25831111 123.13031112v-0.56888889l37.75146666 19.7632 30.60622223-52.78151111-5.00622223-8.61297778h-0.32995555l-29.35466667-50.54008889 0.25031112-0.13653333 29.4343111 50.67662222h10.00106667l-4.99484444 8.61297778 30.26488889 52.09884444 35.81724444-18.77333333 146.86435556-76.99342223H948.90666667v-110.50097777c0-38.99164445-17.38524445-75.45742222-46.88782222-101.12568889zM570.5728 411.17013333v-0.56888888l-58.27697778 30.54933333-0.54613333 0.28444444L282.16888889 321.27431111l-67.51573334 34.96391111a9.28426667 9.28426667 0 0 0-5.13137777 8.20337778v-0.56888889a9.28426667 9.28426667 0 0 1 5.13137777-8.20337778l66.94684445-34.69084444 0.54613333 0.28444444 225.14346667-116.66773333a10.24 10.24 0 0 1 9.4208 0l113.33404445 58.73208889 111.91182222 58.02666666z" p-id="1257"></path><path d="M507.2896 820.54257778a10.24 10.24 0 0 0 9.4208 0l62.50951111-32.39253333V552.50488889l-35.81724444 18.77333333-30.26488889-52.08746667-30.60622223 52.78151112-37.75146666-19.7632v235.94097778z" p-id="1258"></path></svg>