<?xml version="1.0" standalone="no"?><!DOCTYPE svg PUBLIC "-//W3C//DTD SVG 1.1//EN" "http://www.w3.org/Graphics/SVG/1.1/DTD/svg11.dtd"><svg t="1583112533080" class="icon" viewBox="0 0 1024 1024" version="1.1" xmlns="http://www.w3.org/2000/svg" p-id="1288" xmlns:xlink="http://www.w3.org/1999/xlink" width="200" height="200"><defs><style type="text/css"></style></defs><path d="M816.68285843 773.31035017l-30.77683198 0 0-381.2977544c0-10.2490633-5.44541692-19.72592608-14.29977711-24.88751159L615.38547834 276.05589582c-8.90994081-5.1956749-19.91786493-5.22976427-28.8604134-0.09115242-8.94180762 5.13787099-14.45614416 14.66512697-14.45614417 24.97866403l0 472.3676836L539.30452661 773.31109103 539.30452661 226.045952c0-9.68510546-4.86737854-18.72325222-12.95398549-24.05306133-8.08734853-5.32980911-18.31121486-6.23984883-27.21226328-2.42034995L255.00603944 304.32789601c-10.58625205 4.54204706-17.44860349 14.95414652-17.44860347 26.47341127l0 442.50978375-30.66567074 0c-5.63735507 0-10.20756323 4.57020743-10.20756321 10.20682163l0 33.20088762c0 5.6366142 4.57020743 10.20682164 10.20756321 10.20682167l609.7910932 0c5.6366142 0 10.20682164-4.57020743 10.20682164-10.20682167L826.88968007 783.51791265C826.88968007 777.88055761 822.31947264 773.31035017 816.68285843 773.31035017zM651.64774562 379.20460104c0-5.63735507 4.56946657-10.20756323 10.20756322-10.20756323l32.42646456 0c5.63735507 0 10.20756323 4.57020743 10.20756323 10.20756323l0 32.4272054c0 5.63735507-4.57020743 10.20756323-10.20756323 10.20756322L661.8560497 421.83936966c-5.63809663 0-10.20756323-4.57020743-10.20756323-10.20756322L651.6484872 379.20460104zM651.64774562 460.8547298c0-5.63735507 4.56946657-10.20756323 10.20756322-10.20756323l32.42646456 0c5.63735507 0 10.20756323 4.57020743 10.20756323 10.20756323l0 32.42794698c0 5.63735507-4.57020743 10.20756323-10.20756323 10.20756321L661.8560497 503.49023927c-5.63809663 0-10.20756323-4.57020743-10.20756323-10.20756322L651.6484872 460.8547298zM651.64774562 542.50411699c0-5.6366142 4.56946657-10.20682164 10.20756322-10.20682164l32.42646456 0c5.63735507 0 10.20756323 4.57020743 10.20756323 10.20682164l0 32.42868782c0 5.6366142-4.57020743 10.20682164-10.20756323 10.20682165L661.8560497 585.13962647c-5.63809663 0-10.20756323-4.57020743-10.20756323-10.20682166L651.6484872 542.50411699zM651.64774562 624.15424501c0-5.6366142 4.56946657-10.20682164 10.20756322-10.20682163l32.42646456 0c5.63735507 0 10.20756323 4.57020743 10.20756323 10.20682163l0 32.42868785c0 5.6366142-4.57020743 10.20682164-10.20756323 10.20682163L661.8560497 666.78975449c-5.63809663 0-10.20756323-4.57020743-10.20756323-10.20682163L651.6484872 624.15424501zM651.64774562 705.80437306c0-5.6366142 4.56946657-10.20682164 10.20756322-10.20682164l32.42646456 0c5.63735507 0 10.20756323 4.57020743 10.20756323 10.20682164l0 32.42868783c0 5.6366142-4.57020743 10.20682164-10.20756323 10.20682165L661.8560497 748.43988326c-5.63809663 0-10.20756323-4.57020743-10.20756323-10.20682165L651.6484872 705.80437306zM410.75696846 297.55447301c0-5.63735507 4.57020743-10.20756323 10.20756322-10.20756323L453.3917371 287.34690979c5.63735507 0 10.20756323 4.57020743 10.2075632 10.20756321l0 32.4272054c0 5.63735507-4.57020743 10.20756323-10.2075632 10.20756323l-32.42720542 0c-5.63735507 0-10.20756323-4.57020743-10.20756322-10.20756323L410.75696846 297.55447301zM410.75696846 379.20460104c0-5.63735507 4.57020743-10.20756323 10.20756322-10.20756323L453.3917371 368.99703854c5.63735507 0 10.20756323 4.57020743 10.2075632 10.20756322l0 32.42720541c0 5.63735507-4.57020743 10.20756323-10.2075632 10.20756322l-32.42720542 0c-5.63735507 0-10.20756323-4.57020743-10.20756322-10.20756322L410.75696846 379.20460104zM410.75696846 460.8547298c0-5.63735507 4.57020743-10.20756323 10.20756322-10.20756323L453.3917371 450.64716657c5.63735507 0 10.20756323 4.57020743 10.2075632 10.20756323l0 32.42794698c0 5.63735507-4.57020743 10.20756323-10.2075632 10.20756322l-32.42720542 0c-5.63735507 0-10.20756323-4.57020743-10.20756322-10.20756322L410.75696846 460.8547298zM410.75696846 542.50411699c0-5.6366142 4.57020743-10.20682164 10.20756322-10.20682164L453.3917371 532.29729462c5.63735507 0 10.20756323 4.57020743 10.2075632 10.20682164l0 32.42868785c0 5.6366142-4.57020743 10.20682164-10.2075632 10.20682163l-32.42720542 0c-5.63735507 0-10.20756323-4.57020743-10.20756322-10.20682163L410.75696846 542.50411699zM410.75696846 624.15424501c0-5.6366142 4.57020743-10.20682164 10.20756322-10.20682163L453.3917371 613.94742338c5.63735507 0 10.20756323 4.57020743 10.2075632 10.20682163l0 32.42868785c0 5.6366142-4.57020743 10.20682164-10.2075632 10.20682163l-32.42720542 0c-5.63735507 0-10.20756323-4.57020743-10.20756322-10.20682163L410.75696846 624.15424501zM410.75696846 705.80437306c0-5.6366142 4.57020743-10.20682164 10.20756322-10.20682164L453.3917371 695.59755141c5.63735507 0 10.20756323 4.57020743 10.2075632 10.20682165l0 32.42868782c0 5.6366142-4.57020743 10.20682164-10.2075632 10.20682165l-32.42720542 0c-5.63735507 0-10.20756323-4.57020743-10.20756322-10.20682165L410.75696846 705.80437306zM312.45563225 379.20460104c0-5.63735507 4.57020743-10.20756323 10.20756322-10.20756323l32.42720541 0c5.63735507 0 10.20756323 4.57020743 10.20756322 10.20756323l0 32.4272054c0 5.63735507-4.57020743 10.20756323-10.20756322 10.20756322l-32.42720541 0c-5.63735507 0-10.20756323-4.57020743-10.20756322-10.20756322L312.45563225 379.20460104zM312.45563225 460.8547298c0-5.63735507 4.57020743-10.20756323 10.20756322-10.20756323l32.42720541 0c5.63735507 0 10.20756323 4.57020743 10.20756322 10.20756323l0 32.42794698c0 5.63735507-4.57020743 10.20756323-10.20756322 10.20756321l-32.42720541 0c-5.63735507 0-10.20756323-4.57020743-10.20756322-10.20756321L312.45563225 460.8547298zM312.45563225 542.50411699c0-5.6366142 4.57020743-10.20682164 10.20756322-10.20682164l32.42720541 0c5.63735507 0 10.20756323 4.57020743 10.20756322 10.20682164l0 32.42868782c0 5.6366142-4.57020743 10.20682164-10.20756322 10.20682165l-32.42720541 0c-5.63735507 0-10.20756323-4.57020743-10.20756322-10.20682165L312.45563225 542.50411699zM312.45563225 624.15424501c0-5.6366142 4.57020743-10.20682164 10.20756322-10.20682163l32.42720541 0c5.63735507 0 10.20756323 4.57020743 10.20756322 10.20682163l0 32.42868785c0 5.6366142-4.57020743 10.20682164-10.20756322 10.20682163l-32.42720541 0c-5.63735507 0-10.20756323-4.57020743-10.20756322-10.20682163L312.45563225 624.15424501zM312.45563225 705.80437306c0-5.6366142 4.57020743-10.20682164 10.20756322-10.20682164l32.42720541 0c5.63735507 0 10.20756323 4.57020743 10.20756322 10.20682164l0 32.42868783c0 5.6366142-4.57020743 10.20682164-10.20756322 10.20682165l-32.42720541 0c-5.63735507 0-10.20756323-4.57020743-10.20756322-10.20682165L312.45563225 705.80437306z" p-id="1289"></path></svg>