<?xml version="1.0" standalone="no"?><!DOCTYPE svg PUBLIC "-//W3C//DTD SVG 1.1//EN" "http://www.w3.org/Graphics/SVG/1.1/DTD/svg11.dtd"><svg t="1583132863272" class="icon" viewBox="0 0 1024 1024" version="1.1" xmlns="http://www.w3.org/2000/svg" p-id="1319" xmlns:xlink="http://www.w3.org/1999/xlink" width="200" height="200"><defs><style type="text/css"></style></defs><path d="M687.85112094 446.73864638c0-131.86845318-106.89469871-238.797195-238.8291545-238.7971957-131.86845318 0-238.76454169 106.92874185-238.76454168 238.79719571 0 131.86984297 106.89539393 238.79789024 238.76454168 238.79788955 131.93445509-0.00069456 238.82915381-106.92874185 238.8291545-238.79788955zM449.02196644 625.84435837c-98.90151386 0-179.04109987-80.17224-179.04109985-179.10640721 0-98.90151386 80.13958666-179.10571268 179.04109985-179.105712 98.96821031 0 179.10571268 80.20419879 179.10571269 179.105712 0 98.93555698-80.13750234 179.10640721-179.10571269 179.10640721z" fill="#cdcdcd" p-id="1320"></path><path d="M797.98408438 724.34986012L668.03246734 594.39754855c-18.69592529 31.1168003-44.85840928 57.21467215-76.04329581 75.91059744L722.007485 800.32715472c21.01085723 20.97542432 55.03452293 20.97542432 75.97590482 0 21.01085723-20.94416077 21.01085723-55.03452293 0.00069455-75.97729461z" fill="#cdcdcd" p-id="1321"></path></svg>