<?xml version="1.0" standalone="no"?><!DOCTYPE svg PUBLIC "-//W3C//DTD SVG 1.1//EN" "http://www.w3.org/Graphics/SVG/1.1/DTD/svg11.dtd"><svg t="1583068005650" class="icon" viewBox="0 0 1024 1024" version="1.1" xmlns="http://www.w3.org/2000/svg" p-id="10823" xmlns:xlink="http://www.w3.org/1999/xlink" width="200" height="200"><defs><style type="text/css"></style></defs><path d="M513 956.3c-20.8 0-41.5-5.4-60.1-16.1l-282.4-163c-37-21.4-60.1-61.2-60.1-104V347c0-42.8 23-82.7 60.1-104L452.9 80c37-21.5 83.1-21.5 120.2 0l282.4 163c37.1 21.4 60.1 61.2 60.1 104v326.1c0 42.8-23 82.7-60.1 104L573.1 940.2c-18.6 10.7-39.3 16.1-60.1 16.1z m0-853.7c-14.1 0-28.2 3.6-40.7 10.9l-282.4 163C164.7 291 149.1 318 149.1 347v326.1c0 29 15.6 56 40.7 70.5l282.4 163.1c25.1 14.4 56.3 14.5 81.5 0l282.4-163c25.1-14.5 40.7-41.5 40.7-70.5V347c0-29-15.6-56-40.7-70.5l-282.4-163c-12.5-7.3-26.6-10.9-40.7-10.9z m261.5 246.2c0-10.7-8.7-19.4-19.4-19.4H309.6c-10.7 0-19.4 8.7-19.4 19.4s8.7 19.4 19.4 19.4h445.6c10.6-0.1 19.3-8.7 19.3-19.4z m-186 114.5c0-10.7-8.7-19.4-19.4-19.4H309.6c-10.7 0-19.4 8.7-19.4 19.4s8.7 19.4 19.4 19.4h259.6c10.7 0 19.3-8.7 19.3-19.4z m-61.3 114.5c0-10.7-8.7-19.4-19.4-19.4H309.6c-10.7 0-19.4 8.7-19.4 19.4s8.7 19.4 19.4 19.4h198.3c10.7 0 19.3-8.7 19.3-19.4z m61.3 114.6c0-10.7-8.7-19.4-19.4-19.4H309.6c-10.7 0-19.4 8.7-19.4 19.4s8.7 19.4 19.4 19.4h259.6c10.7-0.1 19.3-8.7 19.3-19.4z m176-183.7c-0.7-0.2-1.3-0.4-1.9-0.5-0.3-0.1-0.7-0.1-1-0.1-0.3 0-0.5-0.1-0.8-0.1h-79.9l20.6-101.2c1.6-5 0.4-10.9-3.4-14.5-0.9-0.9-1.9-1.5-3-2-0.7-0.3-1.3-0.6-2.1-0.8-0.1 0-0.1-0.1-0.2-0.1h-0.3c-0.5-0.1-1-0.2-1.6-0.2h-1c-0.3 0-0.7 0-1 0.1l-1.5 0.3c-0.2 0-0.4 0.1-0.5 0.2-0.6 0.2-1.2 0.4-1.8 0.7-0.1 0-0.1 0.1-0.2 0.1-1.8 1-3.4 2.4-4.5 4.3L539.8 577.6c-2.6 2.2-4.2 5.4-4.2 9v3c0 5.2 3.4 9.6 8.2 11.2h0.1c0.6 0.2 1.2 0.4 1.8 0.4 0.3 0.1 0.7 0.1 1 0.1 0.3 0 0.5 0.1 0.8 0.1h80L607.1 701c-2.7 5.4-1.8 12.4 2.6 16.6 2.2 2.1 4.9 3.1 7.6 3.2H618.5c4.2-0.2 8-3 10-7.2l139.9-181.8c2.6-2.2 4.2-5.4 4.2-9v-3c0-5.1-3.4-9.5-8.1-11.1z m-111.4 85.4c0.6-1.4 0.9-3 0.9-4.6v-3c0-6.5-5.3-11.9-11.9-11.9h-68.9l94.7-123-12.7 63.4c-0.7 1.5-1.1 3.2-1.1 4.9v3c0 6.5 5.3 11.9 11.9 11.9h68.9l-94.6 122.8 12.8-63.5z" p-id="10824"></path></svg>