<?xml version="1.0" standalone="no"?><!DOCTYPE svg PUBLIC "-//W3C//DTD SVG 1.1//EN" "http://www.w3.org/Graphics/SVG/1.1/DTD/svg11.dtd"><svg t="1583068471142" class="icon" viewBox="0 0 1024 1024" version="1.1" xmlns="http://www.w3.org/2000/svg" p-id="1244" xmlns:xlink="http://www.w3.org/1999/xlink" width="200" height="200"><defs><style type="text/css"></style></defs><path d="M644.81962667 868.68228096h57.25557874v171.43385315h-57.25557874z" fill="#bfbfbf" p-id="1245"></path><path d="M930.7646373 841.88533874c-1.08186397 2.74627015-2.91271111 5.24288-10.40253952 5.24288h-59.91862841v144.96979285c0 22.96880811-15.0628773 47.93490318-39.11354937 47.93490318h-62.08235634v-171.51707477a57.42201856 57.42201856 0 0 0-57.25557873-57.25557874h-57.17235826a57.42201856 57.42201856 0 0 0-57.25557874 57.25557874v171.51707477H533.6372827c-24.30033237 0-39.19676985-24.96609507-39.19676985-47.93490318v-144.96979285h-59.9186284c-7.48982841 0-9.32067555-2.49660985-10.40253952-5.07644018-0.83220366-2.57983033 0-10.31931904 9.90321777-20.80507904l214.04265586-225.52706048a39.11354937 39.11354937 0 0 1 29.29355207-12.73270841c11.56762397 0 21.55406222 4.24423651 29.45999303 12.73270841l213.79299556 225.52706048c10.06965874 10.65220096 11.06830222 18.47491015 10.15287808 20.63863922z" fill="#bfbfbf" p-id="1246"></path><path d="M491.61102222 600.29675634a274.29416619 274.29416619 0 1 1 0-548.67155285 274.29416619 274.29416619 0 0 1 0 548.67155285z m0-465.5344549a190.99062841 190.99062841 0 0 0-190.40808619 191.15706823c0 105.35692174 85.38404523 191.07384889 190.40808619 191.07384889s190.40808619-85.71692715 190.40808619-191.07384889a190.99062841 190.99062841 0 0 0-190.40808619-191.15706823z" fill="#bfbfbf" p-id="1247"></path><path d="M120.61484715 1006.24546589a41.61015922 41.61015922 0 0 1-41.61015922-41.61015922c0-241.8382427 196.23350841-438.65429333 437.48920889-438.65429334a41.61015922 41.61015922 0 0 1 0 83.2203173c-195.40130589 0-354.26889159 159.45012793-354.26889159 355.43397604a41.61015922 41.61015922 0 0 1-41.61015808 41.61015922z" fill="#bfbfbf" p-id="1248"></path></svg>