<?xml version="1.0" standalone="no"?><!DOCTYPE svg PUBLIC "-//W3C//DTD SVG 1.1//EN" "http://www.w3.org/Graphics/SVG/1.1/DTD/svg11.dtd"><svg t="1583068360435" class="icon" viewBox="0 0 1024 1024" version="1.1" xmlns="http://www.w3.org/2000/svg" p-id="1242" xmlns:xlink="http://www.w3.org/1999/xlink" width="200" height="200"><defs><style type="text/css"></style></defs><path d="M877.79161883 699.92897463c-45.47953606-78.06837559-113.98851872-90.23487568-154.76077796-122.82371522-9.55939293-7.6764822-11.94924116-21.07411624-5.93841076-31.71980379 14.48392868-25.63655377 40.62741996-91.90052748 40.62741996-236.45013572 0-75.02675056-75.53368808-112.54012585-137.59732248-112.54012585-9.99391079 0-20.27750015 1.08629466-30.5610895 2.96920539-8.32825899-6.95228576-17.45313406-13.03553581-27.15736628-18.32216978-0.50693751-0.28967857-0.94145537-0.50693751-1.44839287-0.79661609-9.26971435-4.92453575-18.97394658-9.12487507-29.04027701-12.45617865-0.79661608-0.28967857-1.52081251-0.50693751-2.31742859-0.79661609-9.92149115-3.25888396-20.06024123-5.72115184-30.19899129-7.45922327-0.72419644-0.14483929-1.37597323-0.28967857-2.10016967-0.36209821-10.71810723-1.66565181-21.3637948-2.60710716-31.71980381-2.60710717-76.9096613 0-169.96890307 46.34857177-169.96890305 139.04571534 0 89.29342032 8.03858042 154.39867973 18.39458942 201.10934973 10.28358936 46.71067 22.81218768 75.09917021 31.79222345 90.9590721 1.88291073 3.25888396 3.04162503 6.80744648 3.69340182 10.35600901s0.57935715 7.1695447-0.07241964 10.64568758c-1.30355359 6.95228576-4.9969554 13.47005367-10.86294652 18.17733049-18.90152693 15.13570548-42.58275032 26.65042878-67.85720586 40.26532174-4.20033931 2.24500895-8.47309828 4.56243754-12.74585725 7.0247054-8.54551793 4.85211611-17.23587513 9.99391079-25.85381269 15.64264298-30.12657166 20.06024123-60.18072367 46.71067-84.73098278 88.9313221-4.27275896 7.24196434-6.15566969 15.78748226-6.15566969 24.18816089 0 27.01252699 21.94315195 48.95567894 48.95567894 48.95567895h550.96864701c27.01252699 0 48.95567894-21.94315195 48.95567894-48.95567895 0-8.40067864-1.88291073-16.94619655-6.15566969-24.26058054-4.05550003-6.95228576-8.25583935-13.32521438-12.60101796-19.48088407h71.76786662c21.87073231 0 39.61354494-17.74281263 39.61354493-39.61354494 0.07241965-6.80744648-1.44839287-13.75973225-4.92453574-19.62572337zM741.13575173 805.51681471H190.16710472c-1.44839287 0-2.60710716-1.1587143-2.60710716-2.60710717 0-0.65177679 0.07241965-1.08629466 0-1.08629465l-0.07241966 0.07241964c3.9830804-6.87986613 8.18341971-13.25279475 12.52859832-19.1912055 8.6903572-11.87682152 17.96007157-22.0155716 27.73672344-30.92318773 0.79661608-0.72419644 1.66565181-1.30355359 2.46226787-2.02775002 23.68122339-20.92927695 49.67987537-34.90626812 75.17158984-48.44874143 22.16041088-11.80440188 43.16210747-22.88460732 62.13605404-38.09273242 3.54856253-2.8243661 6.73502684-5.93841076 9.63181257-9.26971436l0.43451787-0.43451787c0.79661608-0.94145537 1.44839287-2.02775002 2.1725893-3.04162502 16.14958048-20.49475909 21.00169658-47.79696465 12.23891973-72.70932197-1.52081251-4.34517861-3.47614289-8.61793757-5.79357147-12.81827689-1.81049109-3.25888396-4.05550003-7.60406256-6.44534826-12.89069651-13.75973225-30.56108952-34.47175027-97.1147418-37.36853601-225.22509099-0.21725894-9.99391079-0.36209822-20.42233943-0.36209821-31.2128663 0-63.94654512 72.27480412-92.69714356 123.62033129-92.69714356 7.6764822 0 15.49780369 0.79661608 23.17428589 1.95533038 2.8243661 0.43451786 5.72115184 1.08629466 8.61793756 1.66565179 5.06937504 1.013875 10.06633044 2.24500895 14.99086619 3.76582145 2.8243661 0.86903572 5.57631255 1.81049109 8.40067863 2.82436611 5.06937504 1.88291073 9.99391079 4.05550003 14.70118762 6.37292861 2.24500895 1.08629466 4.56243754 2.1725893 6.73502683 3.47614287 4.56243754 2.60710716 8.6903572 5.5038929 12.67343759 8.54551794 19.98782158 15.06328583 34.32691097 35.99256278 34.32691098 64.09138441 0 172.50359058-30.85076809 245.79226971-44.17598249 269.25623416-18.75668765 33.31303597-10.93536616 74.59223271 18.68426801 98.2734561 19.04636622 15.20812511 39.97564316 26.36075019 62.13605404 38.09273242 36.49950027 19.40846443 74.0852952 39.46870567 104.06702757 79.73402739l3.04162503 4.34517861c3.54856253 5.06937504 7.09712505 10.28358936 10.42842865 16.00474119 0.07241965 0.14483929 0.14483929 0.72419644 0.14483928 1.5208125 0.14483929 1.52081251-1.013875 2.67952681-2.46226787 2.67952681z m30.19899129-92.69714357h-41.93097353c-47.86938428-41.27919673-100.88056327-57.28393793-136.6558671-85.88969707-11.80440188-9.41455364-14.77360725-25.99865198-7.31438398-39.17902707 17.88765193-31.64738417 50.18681288-113.48158121 50.18681288-292.06842185 0-19.69814301-4.41759825-37.22369671-11.80440187-52.72150039 30.77834844 1.1587143 87.55534888 17.74281263 87.55534888 65.97429514 0 137.59732246-24.18816089 195.24335861-34.61658957 213.63794804-17.30829478 30.70592881-10.06633044 68.87108089 17.30829479 90.74181319 16.00474119 12.81827689 34.18207168 22.45008945 51.70762539 31.79222344 31.64738417 16.80135728 61.62911654 32.73367882 85.4551792 67.78478623h-59.8910451z" p-id="1243"></path></svg>